<?xml version="1.0" encoding="iso-8859-1"?>
<!-- Generator: Adobe Illustrator 19.0.0, SVG Export Plug-In . SVG Version: 6.00 Build 0)  -->
<svg version="1.1" id="Layer_1" xmlns="http://www.w3.org/2000/svg" xmlns:xlink="http://www.w3.org/1999/xlink" x="0px" y="0px"
	 viewBox="0 0 512 512" style="enable-background:new 0 0 512 512;" xml:space="preserve">
<g>
	<g>
		<path d="M358.212,61.167c-2.594-27.955-32.521-50.466-41.626-56.695C312.26,1.519,307.209,0,302.131,0
			c-3.345,0-6.707,0.657-9.882,1.988c-7.987,3.345-13.739,10.496-15.3,19.012c-1.263,6.63-7.031,26.214-18.517,37.7
			c-11.452,11.452-16.452,25.762-14.097,40.294c4.702,29.013,36.668,47.061,46.345,51.9c3.618,1.809,7.535,2.705,11.452,2.705
			c4.685,0,9.353-1.28,13.457-3.823c7.543-4.668,12.143-12.902,12.143-21.777c0.026-0.068,1.015-16.009,18.099-33.101
			C354.987,85.743,359.381,73.762,358.212,61.167z M327.731,76.8c-25.6,25.6-25.6,51.2-25.6,51.2s-51.2-25.6-25.6-51.2
			c19.994-19.994,25.6-51.2,25.6-51.2S347.725,56.806,327.731,76.8z"/>
	</g>
</g>
<g>
	<g>
		<path d="M483.371,397.517C478.916,389.197,470.238,384,460.8,384H384V179.2c0-19.763-13.969-30.097-27.767-30.097
			c-12.314,0-20.617,7.552-29.397,15.556c-4.565,4.156-15.266,13.892-19.891,14.558c-17.758-0.008-32.58-12.254-43.401-21.197
			c-8.969-7.407-17.442-14.413-29.44-14.413h-0.017c-11.827,0-22.298,7.347-26.667,18.714c-1.809,4.727-2.62,9.933-2.62,16.879V384
			h-78.618c-5.726-22.016-25.591-38.4-49.382-38.4c-28.228,0-51.2,22.972-51.2,51.2c0,28.228,22.972,51.2,51.2,51.2
			c23.782,0,43.657-16.384,49.382-38.4H128v76.8c0,14.14,11.46,25.6,25.6,25.6h256c8.559,0,16.555-4.275,21.299-11.401l51.2-76.8
			C487.339,415.949,487.825,405.845,483.371,397.517z M76.8,422.4c-14.14,0-25.6-11.46-25.6-25.6c0-14.14,11.46-25.6,25.6-25.6
			c14.14,0,25.6,11.46,25.6,25.6C102.4,410.94,90.94,422.4,76.8,422.4z M230.4,179.2c0-7.194,1.229-10.001,3.695-10.001
			c4.215,0,12.143,8.26,23.586,16.819C256.7,187.827,256,189.798,256,192v64c0,7.074,5.726,12.8,12.8,12.8
			c7.074,0,12.8-5.726,12.8-12.8v-56.303c7.689,3.021,16.179,5.103,25.6,5.103v89.6c0,7.074,5.726,12.8,12.8,12.8
			c7.074,0,12.8-5.726,12.8-12.8V193.237c10.769-8.499,19.567-18.534,23.433-18.534c1.399,0,2.167,1.314,2.167,4.497
			c0,34.833,0,140.638,0,204.8h-128C230.4,319.838,230.4,214.033,230.4,179.2z M409.6,486.4h-256v-76.8h307.2L409.6,486.4z"/>
	</g>
</g>
<g>
</g>
<g>
</g>
<g>
</g>
<g>
</g>
<g>
</g>
<g>
</g>
<g>
</g>
<g>
</g>
<g>
</g>
<g>
</g>
<g>
</g>
<g>
</g>
<g>
</g>
<g>
</g>
<g>
</g>
</svg>
