<?xml version="1.0" encoding="UTF-8" standalone="no"?>
<!-- Generator: Adobe Illustrator 19.0.0, SVG Export Plug-In . SVG Version: 6.00 Build 0)  -->

<svg
   version="1.1"
   id="Layer_1"
   x="0px"
   y="0px"
   viewBox="0 0 512 512"
   style="enable-background:new 0 0 512 512;"
   xml:space="preserve"
   sodipodi:docname="candle-out.svg"
   inkscape:version="1.1.2 (0a00cf5339, 2022-02-04, custom)"
   xmlns:inkscape="http://www.inkscape.org/namespaces/inkscape"
   xmlns:sodipodi="http://sodipodi.sourceforge.net/DTD/sodipodi-0.dtd"
   xmlns="http://www.w3.org/2000/svg"
   xmlns:svg="http://www.w3.org/2000/svg"><defs
   id="defs47" /><sodipodi:namedview
   id="namedview45"
   pagecolor="#ffffff"
   bordercolor="#666666"
   borderopacity="1.0"
   inkscape:pageshadow="2"
   inkscape:pageopacity="0.0"
   inkscape:pagecheckerboard="0"
   showgrid="false"
   inkscape:zoom="1.7050781"
   inkscape:cx="256"
   inkscape:cy="256"
   inkscape:window-width="2558"
   inkscape:window-height="1390"
   inkscape:window-x="0"
   inkscape:window-y="24"
   inkscape:window-maximized="1"
   inkscape:current-layer="Layer_1" />

<g
   id="g12">
	<g
   id="g10">
		<path
   d="M483.371,397.517C478.916,389.197,470.238,384,460.8,384H384V179.2c0-19.763-13.969-30.097-27.767-30.097    c-12.314,0-20.617,7.552-29.397,15.556c-4.565,4.156-15.266,13.892-19.891,14.558c-17.758-0.008-32.58-12.254-43.401-21.197    c-8.969-7.407-17.442-14.413-29.44-14.413h-0.017c-11.827,0-22.298,7.347-26.667,18.714c-1.809,4.727-2.62,9.933-2.62,16.879V384    h-78.618c-5.726-22.016-25.591-38.4-49.382-38.4c-28.228,0-51.2,22.972-51.2,51.2c0,28.228,22.972,51.2,51.2,51.2    c23.782,0,43.657-16.384,49.382-38.4H128v76.8c0,14.14,11.46,25.6,25.6,25.6h256c8.559,0,16.555-4.275,21.299-11.401l51.2-76.8    C487.339,415.949,487.825,405.845,483.371,397.517z M76.8,422.4c-14.14,0-25.6-11.46-25.6-25.6c0-14.14,11.46-25.6,25.6-25.6    c14.14,0,25.6,11.46,25.6,25.6C102.4,410.94,90.94,422.4,76.8,422.4z M230.4,179.2c0-7.194,1.229-10.001,3.695-10.001    c4.215,0,12.143,8.26,23.586,16.819C256.7,187.827,256,189.798,256,192v64c0,7.074,5.726,12.8,12.8,12.8    c7.074,0,12.8-5.726,12.8-12.8v-56.303c7.689,3.021,16.179,5.103,25.6,5.103v89.6c0,7.074,5.726,12.8,12.8,12.8    c7.074,0,12.8-5.726,12.8-12.8V193.237c10.769-8.499,19.567-18.534,23.433-18.534c1.399,0,2.167,1.314,2.167,4.497    c0,34.833,0,140.638,0,204.8h-128C230.4,319.838,230.4,214.033,230.4,179.2z M409.6,486.4h-256v-76.8h307.2L409.6,486.4z"
   id="path8" />
	</g>
</g>
<g
   id="g14">
</g>
<g
   id="g16">
</g>
<g
   id="g18">
</g>
<g
   id="g20">
</g>
<g
   id="g22">
</g>
<g
   id="g24">
</g>
<g
   id="g26">
</g>
<g
   id="g28">
</g>
<g
   id="g30">
</g>
<g
   id="g32">
</g>
<g
   id="g34">
</g>
<g
   id="g36">
</g>
<g
   id="g38">
</g>
<g
   id="g40">
</g>
<g
   id="g42">
</g>
</svg>
