<?xml version="1.0" standalone="no"?>
<!DOCTYPE svg PUBLIC "-//W3C//DTD SVG 20010904//EN"
 "http://www.w3.org/TR/2001/REC-SVG-20010904/DTD/svg10.dtd">
<svg version="1.0" xmlns="http://www.w3.org/2000/svg"
 width="260.000000pt" height="260.000000pt" viewBox="0 0 260.000000 260.000000"
 preserveAspectRatio="xMidYMid meet">
<metadata>
Created by potrace 1.11, written by Peter Selinger 2001-2013
</metadata>
<g transform="translate(0.000000,260.000000) scale(0.100000,-0.100000)"
fill="#000000" stroke="none">
<path d="M1824 1824 c-50 -25 -74 -57 -82 -110 -6 -40 -7 -182 -3 -256 1 -14
10 -18 46 -18 l45 0 0 139 c0 133 1 141 22 155 14 10 44 16 75 16 l53 0 0 45
0 45 -62 0 c-36 0 -76 -7 -94 -16z"/>
<path d="M1507 1663 c-3 -5 -5 -57 -6 -116 0 -97 1 -108 17 -105 15 3 17 19
20 116 2 93 0 112 -12 112 -8 0 -17 -3 -19 -7z"/>
<path d="M1610 1519 c-6 -10 -10 -32 -10 -48 0 -30 1 -31 44 -30 40 2 44 4 44
28 0 38 -14 58 -43 63 -18 4 -29 0 -35 -13z"/>
<path d="M1431 1397 c-16 -4 -44 -25 -63 -48 -18 -22 -41 -51 -51 -62 l-19
-22 324 -3 c177 -1 329 0 336 3 7 3 12 13 10 22 -1 10 1 24 6 32 6 10 5 12 -2
7 -7 -4 -12 -1 -12 6 -1 22 -36 57 -64 64 -38 9 -429 11 -465 1z"/>
<path d="M229 1326 c-2 -2 -31 -7 -64 -10 -92 -10 -99 -35 -11 -39 l36 -2 -2
-100 -3 -99 -35 -8 c-19 -4 -45 -10 -58 -12 -12 -3 -31 -8 -42 -11 -17 -5 -20
-2 -20 24 0 35 -9 61 -21 61 -4 0 -8 -49 -8 -110 0 -90 3 -110 14 -110 11 0
15 12 15 43 l0 44 53 -13 c28 -7 64 -15 80 -18 27 -6 27 -7 27 -86 0 -88 17
-120 63 -120 38 0 61 28 72 86 10 56 14 77 17 79 2 2 311 -64 422 -90 10 -2
44 -7 75 -11 81 -10 1558 -11 1606 -1 89 18 145 85 152 181 6 78 -23 137 -85
181 l-44 30 -806 0 c-714 0 -906 -4 -930 -19 -4 -2 -83 -20 -177 -40 -93 -20
-177 -39 -186 -42 -16 -4 -25 14 -35 66 -7 40 -16 75 -19 79 -3 2 3 9 12 16
24 17 9 45 -24 46 -15 0 -37 2 -49 4 -12 3 -23 3 -25 1z"/>
</g>
</svg>
